<svg width="322" height="290" viewBox="0 0 322 290" xmlns="http://www.w3.org/2000/svg">
<g fill="none" fill-rule="evenodd">
<g fill="#fff">
<path d="M.148 289.731H13.66v-13.508H.148v13.508zm1.452-1.453h10.604v-10.602H1.6v10.602z"/><path d="M3.965 285.915H9.84v-5.871H3.965zM.994 274.407h1.454v-96.138H.994z"/><path d="M1.723 274.407H17.17v-1.458H1.723z"/><path d="M17.17 272.816c-3.514-.58-6.676-2.299-9.103-4.759-3.931-3.333-5.988-11.08-2.03-14.813 3-2.833 9.26-.676 9.057 3.572-.005.152.064.198.135.184.999-.17 2.066-1.834 2.253-2.989.817-5.039-5.017-7.388-9.604-5.609-4.366 1.701-6.307 6.442-5.815 11.26.468 4.62 3.36 8.869 7.008 11.554a18.23 18.23 0 0 0 6.965 3.159c.373.078.752-.143 1.133-.088v-1.47"/><path d="M2.568 255.313c.264-7.61 7.595-13.246 9.588-20.943.968-3.742-1.505-7.25-5.462-7.177-1.023.018-2.02.4-2.854 1.21-2.085 2.018-2.164 6.1.867 6.749 1.294.271 2.573-.653 2.57-1.734 0-.027-.015-.046-.038-.027-.15.147-.554.386-1.071.248-2.244-.588-2.104-2.906-.922-4.262 2.18-2.501 6.794-.046 5.956 4.354-1.041 5.467-7.924 13.38-8.73 16.446-.425 1.618-.796 3.508-.582 5.136h.678M15.589 289.575h196.135v-1.458H15.59z"/><path d="M15.589 288.844h1.455v-15.449h-1.455z"/><path d="M17.177 273.395c.579 3.518 2.298 6.68 4.757 9.108 3.334 3.931 11.08 5.987 14.817 2.028 2.832-2.998.675-9.26-3.571-9.057-.152.004-.199-.065-.188-.134.173-.997 1.838-2.064 2.988-2.253 5.042-.818 7.39 5.016 5.609 9.605-1.697 4.363-6.441 6.303-11.257 5.816-4.623-.469-8.868-3.365-11.555-7.011a18.21 18.21 0 0 1-3.156-6.966c-.08-.372.14-.75.084-1.136h1.472"/><path d="M34.68 288.002c7.611-.266 13.245-7.595 20.943-9.59 3.744-.966 7.25 1.503 7.177 5.462-.018 1.02-.4 2.018-1.208 2.855-2.017 2.082-6.1 2.165-6.752-.87-.268-1.291.656-2.57 1.735-2.565.028 0 .047.014.028.032a1.155 1.155 0 0 0-.25 1.072c.59 2.248 2.905 2.105 4.262.924 2.504-2.18.048-6.791-4.351-5.954-5.47 1.039-13.38 7.922-16.448 8.726-1.619.428-3.507.796-5.136.584v-.676"/></g><g fill="#fff"><path d="M321.852 289.731H308.34v-13.508h13.512v13.508zm-1.452-1.453h-10.604v-10.602H320.4v10.602z"/><path d="M318.035 285.915h-5.874v-5.871h5.874zM320.277 274.407H304.83v-1.458h15.446z"/><path d="M304.83 272.816c3.514-.58 6.676-2.299 9.103-4.759 3.931-3.333 5.988-11.08 2.03-14.813-3-2.833-9.26-.676-9.057 3.572.005.152-.064.198-.135.184-.999-.17-2.066-1.834-2.253-2.989-.817-5.039 5.017-7.388 9.604-5.609 4.366 1.701 6.307 6.442 5.815 11.26-.468 4.62-3.36 8.869-7.008 11.554a18.23 18.23 0 0 1-6.965 3.159c-.373.078-.752-.143-1.133-.088v-1.47"/><path d="M319.432 255.313c-.264-7.61-7.595-13.246-9.588-20.943-.968-3.742 1.505-7.25 5.462-7.177 1.023.018 2.02.4 2.854 1.21 2.085 2.018 2.164 6.1-.867 6.749-1.294.271-2.573-.653-2.57-1.734 0-.027.015-.046.038-.027.15.147.554.386 1.071.248 2.244-.588 2.104-2.906.922-4.262-2.18-2.501-6.794-.046-5.956 4.354 1.041 5.467 7.924 13.38 8.73 16.446.425 1.618.796 3.508.582 5.136h-.678M306.411 289.575h-96.135v-1.458h96.135z"/><path d="M306.411 288.844h-1.455v-15.449h1.455z"/><path d="M304.823 273.395c-.579 3.518-2.298 6.68-4.757 9.108-3.334 3.931-11.08 5.987-14.817 2.028-2.832-2.998-.675-9.26 3.571-9.057.152.004.199-.065.188-.134-.173-.997-1.838-2.064-2.988-2.253-5.042-.818-7.39 5.016-5.609 9.605 1.697 4.363 6.441 6.303 11.257 5.816 4.623-.469 8.868-3.365 11.555-7.011a18.21 18.21 0 0 0 3.156-6.966c.08-.372-.14-.75-.084-1.136h-1.472"/><path d="M287.32 288.002c-7.611-.266-13.245-7.595-20.943-9.59-3.744-.966-7.25 1.503-7.177 5.462.018 1.02.4 2.018 1.208 2.855 2.017 2.082 6.1 2.165 6.752-.87.268-1.291-.656-2.57-1.735-2.565-.028 0-.047.014-.028.032.146.152.386.557.25 1.072-.59 2.248-2.905 2.105-4.262.924-2.504-2.18-.048-6.791 4.351-5.954 5.47 1.039 13.38 7.922 16.448 8.726 1.619.428 3.507.796 5.136.584v-.676"/></g><path d="M1.723 273.017V1.5M320 273.65V1.5M320 1.5H1.723" stroke="#fff" stroke-width="1.5" stroke-linecap="square"/></g></svg>