<svg xmlns="http://www.w3.org/2000/svg" viewBox="0 0 51 48" width="48"><path fill="#A1ABAD" fill-rule="evenodd" d="M170.280632,143.354286 C169.466986,143.56 168.830616,144.2 168.626068,145.018286 L167.685149,148.808 L164.755571,143.896 C167.103324,142.810286 169.178347,141.24 170.860183,139.308571 L174.739771,142.234286 L170.280632,143.354286 Z M154.923646,135.089143 L147.16447,127.285714 L150.378142,124.053714 L154.923646,128.625143 L164.014654,119.482286 L167.228326,122.714286 L154.923646,135.089143 Z M146.705374,148.808 L145.764455,145.018286 C145.559907,144.2 144.923537,143.56 144.109892,143.354286 L139.650752,142.234286 L143.53034,139.308571 C145.212176,141.24 147.289472,142.810286 149.637225,143.896 L146.705374,148.808 Z M173.407939,135.516571 C174.657952,133.038857 175.378415,130.248 175.378415,127.285714 C175.378415,117.203429 167.221507,109 157.196398,109 C147.171289,109 139.014381,117.203429 139.014381,127.285714 C139.014381,130.248 139.732571,133.038857 140.982585,135.516571 L133.105226,141.457143 C132.402946,141.987429 132.066578,142.876571 132.24158,143.738286 C132.414309,144.602286 133.066589,145.290286 133.916599,145.505143 L141.684865,147.457143 L143.625795,155.269714 C143.850798,156.165714 144.58717,156.84 145.498543,156.974857 C145.609908,156.993143 145.721273,157 145.832638,157 C146.621283,157 147.366745,156.586286 147.780386,155.891429 L154.105455,145.288 C155.112284,145.461714 156.139568,145.571429 157.196398,145.571429 C158.250955,145.571429 159.278239,145.461714 160.285068,145.288 L166.610137,155.891429 C167.026051,156.586286 167.769241,157 168.557886,157 C168.671523,157 168.780615,156.993143 168.894253,156.974857 C169.803354,156.84 170.541998,156.165714 170.764728,155.269714 L172.705658,147.457143 L180.473925,145.505143 C181.323934,145.290286 181.976214,144.602286 182.151216,143.738286 C182.323945,142.876571 181.987578,141.987429 181.28757,141.457143 L173.407939,135.516571 Z" transform="translate(-132 -109)"/></svg>