<svg xmlns="http://www.w3.org/2000/svg" viewBox="0 0 18 17" width="16"><path fill="#C07191" fill-rule="evenodd" d="M82.242875,192.57125 L85.778875,189.03525 C86.168875,188.64525 86.168875,188.01225 85.778875,187.62125 L82.949875,184.79325 C82.558875,184.40225 81.926875,184.40225 81.535875,184.79325 L77.999875,188.32825 L74.464875,184.79325 C74.073875,184.40225 73.440875,184.40225 73.050875,184.79325 L70.221875,187.62125 C69.830875,188.01225 69.830875,188.64525 70.221875,189.03525 L73.757875,192.57125 L70.221875,196.10725 C69.830875,196.49725 69.830875,197.13025 70.221875,197.52125 L73.050875,200.34925 C73.440875,200.74025 74.073875,200.74025 74.464875,200.34925 L77.999875,196.81425 L81.535875,200.34925 C81.926875,200.74025 82.558875,200.74025 82.949875,200.34925 L85.778875,197.52125 C86.168875,197.13025 86.168875,196.49725 85.778875,196.10725 L82.242875,192.57125 Z" transform="translate(-69 -184)"/></svg>