<svg xmlns="http://www.w3.org/2000/svg" viewBox="0 0 49 49" width="50"><path fill="#5DB9CF" fill-rule="evenodd" d="M34.524,18.77 C34.536,18.996 34.54,19.222 34.54,19.45 C34.54,26.406 29.244,34.43 19.562,34.43 C16.59,34.43 13.822,33.556 11.492,32.062 C14.24,32.384 17.036,31.648 19.286,29.884 C16.982,29.84 15.04,28.318 14.37,26.226 C15.162,26.376 15.976,26.348 16.746,26.136 C14.338,25.654 12.524,23.526 12.524,20.978 L12.524,20.908 C13.234,21.302 14.048,21.538 14.908,21.566 C13.496,20.622 12.566,19.012 12.566,17.186 C12.566,16.222 12.826,15.318 13.28,14.538 C15.876,17.724 19.754,19.822 24.13,20.038 C24.04,19.654 23.992,19.25 23.992,18.84 C23.992,15.932 26.35,13.574 29.258,13.574 C30.772,13.574 32.14,14.214 33.1,15.238 C34.3,15 37,14.708 37,14.708 C36.296,15.764 35.554,18.026 34.524,18.77 M24,0 C10.766,0 0,10.766 0,24 C0,37.234 10.766,48 24,48 C37.234,48 48,37.234 48,24 C48,10.766 37.234,0 24,0" transform="translate(.5 .642)"/></svg>