<svg xmlns="http://www.w3.org/2000/svg" viewBox="0 0 24 24" width="24"><path fill="#5DB9CF" fill-rule="evenodd" d="M178.030877,75.9998319 C176.865965,74.2955182 174.946667,73.2147339 172.836725,73.2147339 C170.720936,73.2147339 168.803977,74.2967059 167.639064,76.003395 L165.819181,74.1541849 C167.468304,71.9843025 170.034386,70.6362913 172.836725,70.6362913 C175.632047,70.6362913 178.201637,71.9819272 179.854269,74.1494342 L178.030877,75.9998319 Z M168.158363,62.9389692 L170.497544,62.9389692 L170.497544,67.6896695 L168.158363,67.6896695 L168.158363,62.9389692 Z M175.175906,62.9389692 L177.515088,62.9389692 L177.515088,67.6896695 L175.175906,67.6896695 L175.175906,62.9389692 Z M172.836725,57.0005938 C166.377076,57.0005938 161.140819,62.3190028 161.140819,68.8773445 C161.140819,75.4368739 166.377076,80.7540952 172.836725,80.7540952 C179.295205,80.7540952 184.532632,75.4368739 184.532632,68.8773445 C184.532632,62.3190028 179.295205,57.0005938 172.836725,57.0005938 L172.836725,57.0005938 Z" transform="translate(-161 -57)"/></svg>