<svg xmlns="http://www.w3.org/2000/svg" viewBox="0 0 51 51" width="50"><g fill="#5DB9CF" fill-rule="evenodd"><path d="M17.801875 19.80368C18.076875 19.32736 18.3914583 18.8864 18.7497917 18.47664L18.7497917 12.48 16.6664583 12.48 16.6664583 19.80576 17.801875 19.80368zM31.25 23.92104C31.25 20.47448 28.45 17.68104 25 17.68104 21.5479167 17.68104 18.75 20.47448 18.75 23.92104 18.75 27.36552 21.5479167 30.16104 25 30.16104 28.45 30.16104 31.25 27.36552 31.25 23.92104" transform="translate(.929 .642)"/><path d="M33.3333333,14.56104 L35.4166667,14.56104 L35.4166667,16.64104 L33.3333333,16.64104 L33.3333333,14.56104 Z M20.8333333,16.75752 C22.0645833,16.042 23.4770833,15.60104 25,15.60104 C28.0770833,15.60104 30.7375,17.29208 32.18125,19.77352 L37.5,19.76312 L37.5,16.28952 C37.5,14.1908 35.7875,12.48104 33.68125,12.48104 L20.8333333,12.48104 L20.8333333,16.75752 Z" transform="translate(.929 .642)"/><path d="M39.5833333,33.62528 C39.5833333,36.87632 36.9354167,39.52 33.68125,39.52 L16.31875,39.52 C13.0645833,39.52 10.4166667,36.87632 10.4166667,33.62528 L10.4166667,16.29056 C10.4166667,13.0416 13.0645833,10.4 16.31875,10.4 L33.68125,10.4 C36.9354167,10.4 39.5833333,13.0416 39.5833333,16.29056 L39.5833333,33.62528 Z M25,3.55271368e-14 C11.2145833,3.55271368e-14 0,11.19872 0,24.96 C0,38.72336 11.2145833,49.92 25,49.92 C38.7854167,49.92 50,38.72336 50,24.96 C50,11.19872 38.7854167,3.55271368e-14 25,3.55271368e-14 L25,3.55271368e-14 Z" transform="translate(.929 .642)"/><path d="M14.5833333,19.810752 L14.5833333,12.917632 C13.3520833,13.549952 12.5,14.816672 12.5,16.291392 L12.5,19.816992 L14.5833333,19.810752 Z" transform="translate(.929 .642)"/></g></svg>