<svg xmlns="http://www.w3.org/2000/svg" viewBox="0 0 25 25"><path fill="#A1ABAD" fill-rule="evenodd" d="M24.2675,20.7325 L18.60875,15.07375 C19.50875,13.55125 20,11.815 20,10 C20,7.32875 18.95875,4.8175 17.07,2.93 C15.1825,1.04 12.67125,0 10,0 C7.32875,0 4.8175,1.04 2.93,2.93 C1.04,4.8175 0,7.32875 0,10 C0,12.67125 1.04,15.1825 2.93,17.07 C4.8175,18.96 7.32875,20 10,20 C11.815,20 13.55125,19.50875 15.07375,18.60875 L20.73125,24.26625 C21.20375,24.74 21.8325,25 22.5,25 C23.1675,25 23.79625,24.74 24.2675,24.2675 C24.74,23.795 25,23.16875 25,22.5 C25,21.8325 24.74,21.205 24.2675,20.7325 L24.2675,20.7325 Z" transform="translate(0 .001)"/></svg>