<svg xmlns="http://www.w3.org/2000/svg" viewBox="0 0 51 51" width="50"><path fill="#5DB9CF" fill-rule="evenodd" d="M32.4895833,23.9583333 L28.125,23.9583333 L28.125,38.5416667 L21.875,38.5416667 L21.875,23.9583333 L17.7083333,23.9583333 L17.7083333,19.7916667 L21.875,19.7916667 L21.875,17.3666667 C21.875,15.0770833 22.6083333,11.4958333 27.3958333,11.4958333 L32.2916667,11.5083333 L32.2916667,16.3125 L29.3583333,16.3125 C28.85,16.3125 28.125,16.5708333 28.125,17.6604167 L28.125,19.7916667 L32.9979167,19.7916667 L32.4895833,23.9583333 Z M25,0 C11.2145833,0 0,11.2145833 0,25 C0,38.7854167 11.2145833,50 25,50 C38.7854167,50 50,38.7854167 50,25 C50,11.2145833 38.7854167,0 25,0 L25,0 Z" transform="translate(.533 .642)"/></svg>