<svg xmlns="http://www.w3.org/2000/svg" viewBox="0 0 19 19" width="16"><path fill="#A1ABAD" fill-rule="evenodd" d="M143.392813,194.57125 L139.392813,194.57125 L139.392813,198.57125 L135.392813,198.57125 L135.392813,194.57125 L131.392813,194.57125 L131.392813,190.57125 L135.392813,190.57125 L135.392813,186.57125 L139.392813,186.57125 L139.392813,190.57125 L143.392813,190.57125 L143.392813,194.57125 Z M144.391813,183.57125 L130.391813,183.57125 C129.288813,183.57125 128.391813,184.46825 128.391813,185.57125 L128.391813,199.57125 C128.391813,200.67425 129.288813,201.57125 130.391813,201.57125 L144.391813,201.57125 C145.494813,201.57125 146.391813,200.67425 146.391813,199.57125 L146.391813,185.57125 C146.391813,184.46825 145.494813,183.57125 144.391813,183.57125 L144.391813,183.57125 Z" transform="translate(-128 -183)"/></svg>