<svg xmlns="http://www.w3.org/2000/svg" viewBox="0 0 24 24" width="24"><path fill="#5DB9CF" fill-rule="evenodd" d="M151.783743,66.5019944 L147.10538,66.5019944 L147.10538,64.1266443 L151.783743,64.1266443 L151.783743,66.5019944 Z M144.766199,77.19107 C141.969708,77.19107 139.400117,75.8478095 137.748655,73.6803025 L139.572047,71.8299048 C140.736959,73.5330308 142.655088,74.6150028 144.766199,74.6150028 C146.881988,74.6150028 148.797778,73.5330308 149.96269,71.8239664 L151.783743,73.6755518 C150.13462,75.8454342 147.567368,77.19107 144.766199,77.19107 L144.766199,77.19107 Z M137.748655,64.1266443 L142.427018,64.1266443 L142.427018,66.5019944 L137.748655,66.5019944 L137.748655,64.1266443 Z M144.766199,57.0005938 C138.30655,57.0005938 133.070292,62.3190028 133.070292,68.8773445 C133.070292,75.4368739 138.30655,80.7540952 144.766199,80.7540952 C151.224678,80.7540952 156.462105,75.4368739 156.462105,68.8773445 C156.462105,62.3190028 151.224678,57.0005938 144.766199,57.0005938 L144.766199,57.0005938 Z" transform="translate(-133 -57)"/></svg>