<svg xmlns="http://www.w3.org/2000/svg" viewBox="0 0 22 23" width="24"><g fill="#5DB9CF" fill-rule="evenodd"><path d="M4.58131948 4.8434087C6.23851429 3.08306087 8.46225455 2.08653913 10.8567481 2.08653913 15.7552935 2.08653913 19.7398649 6.30010435 19.7398649 11.4778435L21.7138909 11.4778435C21.7138909 5.14914783 16.8439688-.000417391304 10.8567481-.000417391304 7.93025455-.000417391304 5.21202078 1.21732174 3.18667013 3.36897391L.986618182 1.04306087.986618182 7.30393043 6.9086961 7.30393043 4.58131948 4.8434087zM17.1324727 18.113113C15.4762649 19.8734609 13.2525247 20.8699826 10.8570442 20.8699826 5.95948571 20.8699826 1.97392727 16.6564174 1.97392727 11.4786783L-.0000987012986 11.4786783C-.0000987012986 17.8073739 4.87081039 22.9569391 10.8570442 22.9569391 13.7855117 22.9569391 16.5027584 21.7392 18.5271221 19.5875478L20.727174 21.9134609 20.727174 15.6525913 14.8050961 15.6525913 17.1324727 18.113113z"/><path d="M12.8311688,11.4782609 C12.8311688,12.6292174 11.9458182,13.5652174 10.8571429,13.5652174 C9.76846753,13.5652174 8.88311688,12.6292174 8.88311688,11.4782609 C8.88311688,10.3273043 9.76846753,9.39130435 10.8571429,9.39130435 C11.9458182,9.39130435 12.8311688,10.3273043 12.8311688,11.4782609 M6.90909091,11.4782609 C6.90909091,13.7801739 8.67979221,15.6521739 10.8571429,15.6521739 C13.0344935,15.6521739 14.8051948,13.7801739 14.8051948,11.4782609 C14.8051948,9.17634783 13.0344935,7.30434783 10.8571429,7.30434783 C8.67979221,7.30434783 6.90909091,9.17634783 6.90909091,11.4782609"/></g></svg>