<svg x="0%" y="0%" width="100%" height="20" xmlns="http://www.w3.org/2000/svg" xmlns:xlink="http://www.w3.org/1999/xlink">

<symbol id="end" viewBox="0 0 14 8">
<path fill="#a1abad" fill-rule="evenodd" d="M337.547931,116.403793 C337.547931,117.676552 338.558993,120.65882 340.581118,125.350596 L340.581106,125.350601 C340.799702,125.857791 341.388068,126.091743 341.895258,125.873148 C342.129994,125.771978 342.317078,125.584762 342.418083,125.349956 C344.436143,120.658548 345.445172,117.676494 345.445172,116.403793 C345.445172,114.217586 343.683793,112.452069 341.500345,112.452069 C339.317586,112.452069 337.547931,114.217586 337.547931,116.403793 Z" transform="rotate(-90 116.497 228.949)"/>
</symbol>

<symbol id="line">
<line x1="13" y1="0" x2="100%" y2="0" stroke="#a1abad" stroke-width="3" />
</symbol>

<use xlink:href="#end" x="0%" y="0%" width="14" height="8" transform="translate(0 8)" />
<use xlink:href="#line" x="0%" y="0%" height="8" transform="translate(0 11)" />
<use xlink:href="#end" x="-100%" y="0%" width="14" height="8" transform="scale(-1,1) translate(0 8)"/>
</svg>