<svg xmlns="http://www.w3.org/2000/svg" viewBox="0 0 50 48" width="48"><path fill="#C07191" fill-rule="evenodd" d="M103.084725,141.354286 C102.27108,141.56 101.634709,142.2 101.430162,143.018286 L100.489242,146.808 L97.559665,141.896 C99.9074179,140.810286 101.982441,139.24 103.664277,137.308571 L107.543865,140.234286 L103.084725,141.354286 Z M87.7277395,133.089143 L79.968564,125.285714 L83.1822354,122.053714 L87.7277395,126.625143 L96.8187478,117.482286 L100.032419,120.714286 L87.7277395,133.089143 Z M79.509468,146.808 L78.5685487,143.018286 C78.364001,142.2 77.7276304,141.56 76.9139852,141.354286 L72.4548456,140.234286 L76.3344334,137.308571 C78.0162699,139.24 80.0935653,140.810286 82.4413182,141.896 L79.509468,146.808 Z M114.091664,139.457143 L106.212032,133.516571 C107.462046,131.038857 108.182508,128.248 108.182508,125.285714 C108.182508,115.203429 100.025601,107 90.0004916,107 C79.9753822,107 71.818475,115.203429 71.818475,125.285714 C71.818475,128.248 72.5366647,131.038857 73.7866783,133.516571 L65.9093196,139.457143 C65.2070393,139.987429 64.870672,140.876571 65.0456739,141.738286 C65.218403,142.602286 65.8706829,143.290286 66.7206921,143.505143 L74.4889587,145.457143 L76.429889,153.269714 C76.6548914,154.165714 77.3912631,154.84 78.3026367,154.974857 C78.4140015,154.993143 78.5253664,155 78.6367312,155 C79.4253762,155 80.1708389,154.586286 80.5844798,153.891429 L86.9095488,143.288 C87.9163779,143.461714 88.9436619,143.571429 90.0004916,143.571429 C91.0550486,143.571429 92.0823325,143.461714 93.0891617,143.288 L99.4142307,153.891429 C99.8301443,154.586286 100.573334,155 101.361979,155 C101.475617,155 101.584709,154.993143 101.698346,154.974857 C102.607447,154.84 103.346092,154.165714 103.568821,153.269714 L105.509752,145.457143 L113.278018,143.505143 C114.128028,143.290286 114.780307,142.602286 114.955309,141.738286 C115.128038,140.876571 114.791671,139.987429 114.091664,139.457143 L114.091664,139.457143 Z" transform="translate(-65 -107)"/></svg>