<svg xmlns="http://www.w3.org/2000/svg" viewBox="0 0 18 19" width="16"><path fill="#5DB9CF" fill-rule="evenodd" d="M109,189.57125 L109,184.57125 C109,184.01925 108.552,183.57125 108,183.57125 L104,183.57125 C103.448,183.57125 103,184.01925 103,184.57125 L103,189.57125 L98,189.57125 C97.448,189.57125 97,190.01925 97,190.57125 L97,194.57125 C97,195.12425 97.448,195.57125 98,195.57125 L103,195.57125 L103,200.57125 C103,201.12425 103.448,201.57125 104,201.57125 L108,201.57125 C108.552,201.57125 109,201.12425 109,200.57125 L109,195.57125 L114,195.57125 C114.552,195.57125 115,195.12425 115,194.57125 L115,190.57125 C115,190.01925 114.552,189.57125 114,189.57125 L109,189.57125 Z" transform="translate(-97 -183)"/></svg>