<svg xmlns="http://www.w3.org/2000/svg" viewBox="0 0 24 24" width="24"><path fill="#5DB9CF" fill-rule="evenodd" d="M85.2,71.4005938 C83.76,71.4005938 82.4808,72.0509938 81.6,73.0589938 L75.4908,70.0037938 C75.5604,69.6797938 75.6,69.3449938 75.6,69.0005938 C75.6,68.6561938 75.5604,68.3213938 75.4908,67.9973938 L81.6,64.9421938 C82.4808,65.9501938 83.76,66.6005938 85.2,66.6005938 C87.8472,66.6005938 90,64.4477938 90,61.8005938 C90,59.1533938 87.8472,57.0005938 85.2,57.0005938 C82.5528,57.0005938 80.4,59.1533938 80.4,61.8005938 C80.4,62.1449938 80.4396,62.4797938 80.5092,62.8037938 L74.4,65.8589938 C73.5192,64.8509938 72.24,64.2005938 70.8,64.2005938 C68.1528,64.2005938 66,66.3533938 66,69.0005938 C66,71.6477938 68.1528,73.8005938 70.8,73.8005938 C72.24,73.8005938 73.5192,73.1501938 74.4,72.1421938 L80.5092,75.1973938 C80.4396,75.5213938 80.4,75.8561938 80.4,76.2005938 C80.4,78.8477938 82.5528,81.0005938 85.2,81.0005938 C87.8472,81.0005938 90,78.8477938 90,76.2005938 C90,73.5533938 87.8472,71.4005938 85.2,71.4005938" transform="translate(-66 -57)"/></svg>