<svg xmlns="http://www.w3.org/2000/svg" viewBox="0 0 24 24" width="24"><path fill="#5DB9CF" fill-rule="evenodd" d="M123.71345,71.2532885 C123.71345,74.3614342 120.368421,77.1916639 116.695906,77.1916639 C113.023392,77.1916639 109.678363,74.3614342 109.678363,71.2532885 L109.678363,70.0656134 L123.71345,70.0656134 L123.71345,71.2532885 Z M112.017544,61.751888 L114.356725,61.751888 L114.356725,66.5025882 L112.017544,66.5025882 L112.017544,61.751888 Z M119.035088,61.751888 L121.374269,61.751888 L121.374269,66.5025882 L119.035088,66.5025882 L119.035088,61.751888 Z M116.695906,57.0011877 C110.236257,57.0011877 105,62.3195966 105,68.8779384 C105,75.4362801 110.236257,80.7546891 116.695906,80.7546891 C123.154386,80.7546891 128.391813,75.4362801 128.391813,68.8779384 C128.391813,62.3195966 123.154386,57.0011877 116.695906,57.0011877 L116.695906,57.0011877 Z" transform="translate(-105 -57)"/></svg>