<svg xmlns="http://www.w3.org/2000/svg" viewBox="0 0 335 68"><g fill="none" fill-rule="evenodd"><path fill="#814158" fill-rule="nonzero" d="M33.4,40.3697297 C33.4,41.0363997 33.6533308,41.7963921 34.16,42.6497297 L34.16,42.9297297 L27.72,42.9297297 L27.72,42.6497297 C28.2000024,41.7697253 28.44,41.0363993 28.44,40.4497297 L28.44,28.9297297 C28.44,27.9963917 28.2133356,26.8897361 27.76,25.6097297 C27.3066644,24.3297233 26.6533376,23.1030689 25.8,21.9297297 C24.9466624,20.7563905 23.9333392,19.8630661 22.76,19.2497297 L22.24,21.1697297 C21.1466612,25.3564173 20.1600044,28.8497157 19.28,31.6497297 C20.4000056,31.3297281 21.3199964,30.8497329 22.04,30.2097297 C22.7600036,29.5697265 23.286665,28.9297329 23.62,28.2897297 C23.953335,27.6497265 24.12,27.1830645 24.12,26.8897297 L24.28,26.7697297 C24.6533352,26.8763969 24.9666654,27.1697273 25.22,27.6497297 C25.4733346,28.1297321 25.6,28.7163929 25.6,29.4097297 C25.6,30.1030665 25.3800022,30.9630579 24.94,31.9897297 C24.4999978,33.0164015 23.6866726,33.9763919 22.5,34.8697297 C21.3133274,35.7630675 19.6933436,36.2763957 17.64,36.4097297 C16.1466592,40.2230821 14.4733426,43.1963857 12.62,45.3297297 C10.7666574,47.4630737 8.5600128,48.5297297 6,48.5297297 C4.2133244,48.5297297 2.8666712,48.0097349 1.96,46.9697297 C1.0533288,45.9297245 0.6,44.7297365 0.6,43.3697297 C0.6,42.6763929 0.7199988,42.0363993 0.96,41.4497297 C1.2000012,40.8630601 1.5333312,40.4363977 1.96,40.1697297 L2.24,40.0497297 C2.1866664,40.5297321 2.2333326,41.0897265 2.38,41.7297297 C2.5266674,42.3697329 2.866664,42.9497271 3.4,43.4697297 C3.933336,43.9897323 4.7199948,44.2497297 5.76,44.2497297 C7.1200068,44.2497297 8.333328,43.5097371 9.4,42.0297297 C10.466672,40.5497223 11.5066616,38.4230769 12.52,35.6497297 C10.5999904,34.8497257 9.106672,33.5497387 8.04,31.7497297 C6.973328,29.9497207 6.44,27.9697405 6.44,25.8097297 C6.44,23.8363865 6.906662,21.9697385 7.84,20.2097297 C8.773338,18.4497209 10.1866572,17.0097353 12.08,15.8897297 C13.9733428,14.7697241 16.2933196,14.1830633 19.04,14.1297297 C20.3466732,10.5563785 21.7466592,7.63640773 23.24,5.36972973 C24.7333408,3.10305173 26.4666568,1.62306653 28.44,0.92972973 C29.240004,0.66306173 30.0666624,0.52972973 30.92,0.52972973 L34.56,0.52972973 L34.56,0.80972973 C34.2399984,1.12973133 33.9666678,1.58306013 33.74,2.16972973 C33.5133322,2.75639933 33.4,3.32972693 33.4,3.88972973 L33.4,40.3697297 Z M23.96,15.0897297 C25.6400084,15.8630669 27.1333268,17.0097221 28.44,18.5297297 L28.44,5.88972973 C27.6133292,6.66306693 26.8400036,7.81638873 26.12,9.34972973 C25.3999964,10.8830707 24.6800036,12.7963849 23.96,15.0897297 Z M17.6,18.5297297 C15.4133224,18.8497313 13.7400058,19.7097227 12.58,21.1097297 C11.4199942,22.5097367 10.84,24.0763877 10.84,25.8097297 C10.84,26.9830689 11.106664,28.0697247 11.64,29.0697297 C12.173336,30.0697347 12.9333284,30.8363937 13.92,31.3697297 C15.4666744,25.7430349 16.6933288,21.4630777 17.6,18.5297297 Z M48.48,35.7297297 L44.92,24.0497297 L43.56,24.0497297 L43.56,33.2897297 C43.56,33.9030661 43.7733312,34.6230589 44.2,35.4497297 L44.2,35.7297297 L38.16,35.7297297 L38.16,35.4497297 C38.6133356,34.6230589 38.84,33.9030661 38.84,33.2897297 L38.84,10.1697297 C38.84,9.55639333 38.6133356,8.83640053 38.16,8.00972973 L38.16,7.72972973 L45.92,7.72972973 C48.0800108,7.72972973 49.8199934,8.44972253 51.14,9.88972973 C52.4600066,11.3297369 53.12,13.2230513 53.12,15.5697297 C53.12,17.4364057 52.7000042,19.0897225 51.86,20.5297297 C51.0199958,21.9697369 50.0266724,22.9830601 48.88,23.5697297 L52.56,33.4097297 C52.8533348,34.1297333 53.2533308,34.8097265 53.76,35.4497297 L53.76,35.7297297 L48.48,35.7297297 Z M44.92,20.0097297 C45.7733376,20.0097297 46.5266634,19.6497333 47.18,18.9297297 C47.8333366,18.2097261 48.16,17.2497357 48.16,16.0497297 C48.16,13.4363833 46.893346,12.1297297 44.36,12.1297297 L43.56,12.1297297 L43.56,20.0097297 L44.92,20.0097297 Z M68.84,12.6897297 C67.5599936,12.0497265 66.6133364,11.7297297 66,11.7297297 L62.16,11.7297297 L62.16,18.6097297 L64,18.6097297 C64.6133364,18.6097297 65.3999952,18.3830653 66.36,17.9297297 L66.68,17.9297297 L66.68,23.0497297 L66.36,23.0497297 C65.3999952,22.5963941 64.6133364,22.3697297 64,22.3697297 L62.16,22.3697297 L62.16,31.7297297 L66.68,31.7297297 C67.0533352,31.7297297 67.4333314,31.6497305 67.82,31.4897297 C68.2066686,31.3297289 68.7599964,31.0497317 69.48,30.6497297 L69.64,30.6497297 L69.64,35.7297297 L56.76,35.7297297 L56.76,35.4497297 C57.2133356,34.6230589 57.44,33.9030661 57.44,33.2897297 L57.44,10.1697297 C57.44,9.55639333 57.2133356,8.83640053 56.76,8.00972973 L56.76,7.72972973 L69,7.72972973 L69,12.6897297 L68.84,12.6897297 Z M84.44,7.72972973 L89.92,7.72972973 L89.92,8.04972973 C89.7333324,8.34306453 89.64,8.67639453 89.64,9.04972973 C89.64,9.28973093 89.6799996,9.55639493 89.76,9.84972973 L92.16,21.2497297 L95.2,7.60972973 L97.96,7.60972973 L100.72,21.2497297 L103.36,10.1697297 C103.493334,9.68972733 103.56,9.28973133 103.56,8.96972973 C103.56,8.62306133 103.493334,8.31639773 103.36,8.04972973 L103.36,7.72972973 L108.76,7.72972973 L108.76,7.96972973 C108.413332,8.52973253 108.173334,9.08972693 108.04,9.64972973 L102.48,35.7297297 L99.68,35.7297297 L96.36,19.8897297 L92.96,35.7297297 L90.08,35.7297297 L85.16,10.0497297 C85.1066664,9.48972693 84.8666688,8.80973373 84.44,8.00972973 L84.44,7.72972973 Z M124.24,12.6897297 C122.959994,12.0497265 122.013336,11.7297297 121.4,11.7297297 L117.56,11.7297297 L117.56,18.6097297 L119.4,18.6097297 C120.013336,18.6097297 120.799995,18.3830653 121.76,17.9297297 L122.08,17.9297297 L122.08,23.0497297 L121.76,23.0497297 C120.799995,22.5963941 120.013336,22.3697297 119.4,22.3697297 L117.56,22.3697297 L117.56,31.7297297 L122.08,31.7297297 C122.453335,31.7297297 122.833331,31.6497305 123.22,31.4897297 C123.606669,31.3297289 124.159996,31.0497317 124.88,30.6497297 L125.04,30.6497297 L125.04,35.7297297 L112.16,35.7297297 L112.16,35.4497297 C112.613336,34.6230589 112.84,33.9030661 112.84,33.2897297 L112.84,10.1697297 C112.84,9.55639333 112.613336,8.83640053 112.16,8.00972973 L112.16,7.72972973 L124.4,7.72972973 L124.4,12.6897297 L124.24,12.6897297 Z M149.52,7.44972973 L155.44,33.5297297 C155.626668,34.3297337 155.933331,34.9830605 156.36,35.4897297 L156.36,35.7297297 L150.12,35.7297297 L150.12,35.4497297 C150.440002,34.9430605 150.6,34.4630653 150.6,34.0097297 C150.6,33.9030625 150.573334,33.7163977 150.52,33.4497297 L149.52,29.4897297 L145.6,29.4897297 L144.48,33.6497297 C144.426666,33.9163977 144.4,34.1030625 144.4,34.2097297 C144.4,34.5563981 144.533332,34.9697273 144.8,35.4497297 L144.8,35.7297297 L138.96,35.7297297 L138.96,35.5297297 C139.360002,34.9963937 139.613333,34.5163985 139.72,34.0897297 L145.88,9.52972973 C145.906667,9.44972933 145.92,9.32973053 145.92,9.16972973 C145.92,8.87639493 145.853334,8.59639773 145.72,8.32972973 C145.586666,8.06306173 145.440001,7.86306373 145.28,7.72972973 L145.28,7.44972973 L149.52,7.44972973 Z M146.36,25.6897297 L148.84,25.6897297 L147.64,19.6897297 L146.36,25.6897297 Z M180,8.00972973 C179.679998,8.48973213 179.48,8.86306173 179.4,9.12972973 C179.32,9.39639773 179.28,9.74306093 179.28,10.1697297 L179.28,33.2897297 C179.28,34.0364001 179.493331,34.7563929 179.92,35.4497297 L179.92,35.7297297 L174.16,35.7297297 L174.16,35.4497297 C174.586669,34.6497257 174.8,33.9297329 174.8,33.2897297 L174.8,16.8897297 L169.72,27.0097297 L169.28,27.0097297 L164.16,16.8897297 L164.16,33.4897297 C164.16,34.1030661 164.413331,34.7563929 164.92,35.4497297 L164.92,35.7297297 L158.88,35.7297297 L158.88,35.4497297 C159.440003,34.6763925 159.72,33.9563997 159.72,33.2897297 L159.72,9.88972973 C159.72,9.40972733 159.466669,8.78306693 158.96,8.00972973 L158.96,7.72972973 L164.72,7.72972973 L169.52,17.7297297 L173.96,7.72972973 L180,7.72972973 L180,8.00972973 Z M200,7.72972973 L200,8.00972973 C199.466664,8.64973293 199.2,9.22306053 199.2,9.72972973 L199.2,27.4897297 C199.2,30.1297429 198.520007,32.2097221 197.16,33.7297297 C195.799993,35.2497373 193.960012,36.0097297 191.64,36.0097297 C189.319988,36.0097297 187.500007,35.2497373 186.18,33.7297297 C184.859993,32.2097221 184.2,30.1297429 184.2,27.4897297 L184.2,10.1697297 C184.2,9.87639493 184.113334,9.50973193 183.94,9.06972973 C183.766666,8.62972753 183.586668,8.27639773 183.4,8.00972973 L183.4,7.72972973 L189.68,7.72972973 L189.68,8.00972973 C189.199998,8.83640053 188.96,9.55639333 188.96,10.1697297 L188.96,27.4897297 C188.96,28.7964029 189.199998,29.8163927 189.68,30.5497297 C190.160002,31.2830667 190.813329,31.6497297 191.64,31.6497297 C192.573338,31.6497297 193.293331,31.2830667 193.8,30.5497297 C194.306669,29.8163927 194.56,28.7964029 194.56,27.4897297 L194.56,10.1697297 C194.56,9.47639293 194.306669,8.75640013 193.8,8.00972973 L193.8,7.72972973 L200,7.72972973 Z M203.36,29.2097297 C203.786669,30.1697345 204.31333,30.9163937 204.94,31.4497297 C205.56667,31.9830657 206.386662,32.2497297 207.4,32.2497297 C208.253338,32.2497297 208.959997,31.9230663 209.52,31.2697297 C210.080003,30.6163931 210.36,29.7297353 210.36,28.6097297 C210.36,27.5963913 210.033337,26.5097355 209.38,25.3497297 C208.726663,24.1897239 207.73334,22.9030701 206.4,21.4897297 C205.173327,20.1830565 204.26667,18.8830695 203.68,17.5897297 C203.09333,16.2963899 202.8,14.9164037 202.8,13.4497297 C202.8,11.6363873 203.42666,10.1830685 204.68,9.08972973 C205.93334,7.99639093 207.586656,7.44972973 209.64,7.44972973 C210.573338,7.44972973 211.37333,7.51639573 212.04,7.64972973 C212.70667,7.78306373 213.133332,7.91639573 213.32,8.04972973 L213.48,13.5697297 L213.16,13.5697297 C212.786665,12.9830601 212.293336,12.4563987 211.68,11.9897297 C211.066664,11.5230607 210.38667,11.2897297 209.64,11.2897297 C209.079997,11.2897297 208.626668,11.5097275 208.28,11.9497297 C207.933332,12.3897319 207.76,12.9030601 207.76,13.4897297 C207.76,14.8764033 208.359994,16.2097233 209.56,17.4897297 C211.400009,19.4364061 212.773329,21.2963875 213.68,23.0697297 C214.586671,24.8430719 215.04,26.6363873 215.04,28.4497297 C215.04,30.7164077 214.366673,32.5430561 213.02,33.9297297 C211.673327,35.3164033 209.893344,36.0097297 207.68,36.0097297 C206.479994,36.0097297 205.500004,35.8630645 204.74,35.5697297 C203.979996,35.2763949 203.453335,34.9563981 203.16,34.6097297 L203.04,29.2097297 L203.36,29.2097297 Z M230.12,12.6897297 C228.839994,12.0497265 227.893336,11.7297297 227.28,11.7297297 L223.44,11.7297297 L223.44,18.6097297 L225.28,18.6097297 C225.893336,18.6097297 226.679995,18.3830653 227.64,17.9297297 L227.96,17.9297297 L227.96,23.0497297 L227.64,23.0497297 C226.679995,22.5963941 225.893336,22.3697297 225.28,22.3697297 L223.44,22.3697297 L223.44,31.7297297 L227.96,31.7297297 C228.333335,31.7297297 228.713331,31.6497305 229.1,31.4897297 C229.486669,31.3297289 230.039996,31.0497317 230.76,30.6497297 L230.92,30.6497297 L230.92,35.7297297 L218.04,35.7297297 L218.04,35.4497297 C218.493336,34.6230589 218.72,33.9030661 218.72,33.2897297 L218.72,10.1697297 C218.72,9.55639333 218.493336,8.83640053 218.04,8.00972973 L218.04,7.72972973 L230.28,7.72972973 L230.28,12.6897297 L230.12,12.6897297 Z M242.16,7.72972973 C244.800013,7.72972973 246.893326,8.92305113 248.44,11.3097297 C249.986674,13.6964083 250.76,17.1163741 250.76,21.5697297 C250.76,26.0230853 249.873342,29.4697175 248.1,31.9097297 C246.326658,34.3497419 243.920015,35.6230625 240.88,35.7297297 L234.32,35.7297297 L234.32,35.4097297 C234.800002,34.6630593 235.04,33.9563997 235.04,33.2897297 L235.04,10.1697297 C235.04,9.58306013 234.800002,8.86306733 234.32,8.00972973 L234.32,7.72972973 L242.16,7.72972973 Z M240.76,32.0097297 C242.226674,31.9563961 243.386662,31.0297387 244.24,29.2297297 C245.093338,27.4297207 245.52,24.8764129 245.52,21.5697297 C245.52,18.4230473 245.20667,16.0097381 244.58,14.3297297 C243.95333,12.6497213 243.106672,11.8097297 242.04,11.8097297 L239.72,11.8097297 L239.72,32.0097297 L240.76,32.0097297 Z M258.04,21.2097297 C259.106672,20.9163949 260.019996,20.2697347 260.78,19.2697297 C261.540004,18.2697247 261.92,17.1297361 261.92,15.8497297 C261.92,14.4897229 261.660003,13.3830673 261.14,12.5297297 C260.619997,11.6763921 259.98667,11.2497297 259.24,11.2497297 C258.599997,11.2497297 258.093335,11.4430611 257.72,11.8297297 C257.346665,12.2163983 257.16,12.6897269 257.16,13.2497297 C257.16,13.9430665 257.386664,14.5030609 257.84,14.9297297 L257.72,15.1697297 L255.32,15.1697297 C254.866664,15.1697297 254.460002,14.9297321 254.1,14.4497297 C253.739998,13.9697273 253.56,13.4097329 253.56,12.7697297 C253.56,11.1963885 254.099995,9.91640133 255.18,8.92972973 C256.260005,7.94305813 257.79999,7.44972973 259.8,7.44972973 C261.746676,7.44972973 263.313327,8.21638873 264.5,9.74972973 C265.686673,11.2830707 266.28,13.3163837 266.28,15.8497297 C266.28,17.9297401 265.706672,19.8163879 264.56,21.5097297 C263.413328,23.2030715 261.920009,24.4230593 260.08,25.1697297 L259.72,28.3697297 L258.52,29.0497297 L258.04,21.2097297 Z M259.12,36.0097297 C258.45333,36.0097297 257.926669,35.8097317 257.54,35.4097297 C257.153331,35.0097277 256.96,34.4897329 256.96,33.8497297 C256.96,33.1830597 257.153331,32.6497317 257.54,32.2497297 C257.926669,31.8497277 258.45333,31.6497297 259.12,31.6497297 C259.760003,31.6497297 260.279998,31.8497277 260.68,32.2497297 C261.080002,32.6497317 261.28,33.1830597 261.28,33.8497297 C261.28,34.4897329 261.080002,35.0097277 260.68,35.4097297 C260.279998,35.8097317 259.760003,36.0097297 259.12,36.0097297 Z" transform="translate(-.071)"/><path fill="#A1ABAD" fill-rule="nonzero" d="M87.17,44.4 C87.436668,44.8533356 87.57,45.3199976 87.57,45.8 C87.57,46.266669 87.4300014,46.6933314 87.15,47.08 C86.8699986,47.4666686 86.4833358,47.7699989 85.99,47.99 C85.4966642,48.2100011 84.9433364,48.32 84.33,48.32 C83.5166626,48.32 82.7400037,48.2733338 82,48.18 C81.2599963,48.0866662 80.3033392,47.940001 79.13,47.74 L79.13,66.44 C79.13,66.773335 79.2699986,67.1133316 79.55,67.46 L79.55,67.6 L76.11,67.6 L76.11,67.46 C76.243334,67.3133326 76.3499996,67.1433343 76.43,66.95 C76.5100004,66.7566657 76.55,66.5666676 76.55,66.38 L76.55,47.36 C75.8033296,47.3066664 75.230002,47.28 74.83,47.28 C74.0699962,47.28 73.4200027,47.4199986 72.88,47.7 C72.3399973,47.9800014 71.9333347,48.319998 71.66,48.72 C71.3866653,49.120002 71.25,49.4799984 71.25,49.8 C71.25,50.0800014 71.3433324,50.3233323 71.53,50.53 C71.7166676,50.7366677 71.9233322,50.84 72.15,50.84 L72.15,51.06 C71.9766658,51.4066684 71.7466681,51.6733324 71.46,51.86 C71.1733319,52.0466676 70.7833358,52.14 70.29,52.14 C69.7699974,52.14 69.3400017,51.9366687 69,51.53 C68.6599983,51.1233313 68.49,50.5466704 68.49,49.8 C68.49,48.9599958 68.7633306,48.1466706 69.31,47.36 C69.8566694,46.5733294 70.6266617,45.9300025 71.62,45.43 C72.6133383,44.9299975 73.743327,44.68 75.01,44.68 C75.8633376,44.68 76.6433298,44.7199996 77.35,44.8 C78.0566702,44.8800004 78.9366614,45.0066658 79.99,45.18 C80.9500048,45.3266674 81.7366636,45.4366663 82.35,45.51 C82.9633364,45.5833337 83.6233298,45.62 84.33,45.62 C85.1033372,45.62 85.7099978,45.486668 86.15,45.22 C86.5900022,44.953332 86.8833326,44.6800014 87.03,44.4 L87.17,44.4 Z M89.77,50 L89.77,50.14 C89.6499994,50.3666678 89.5633336,50.5499993 89.51,50.69 C89.4566664,50.8300007 89.43,50.9733326 89.43,51.12 L89.43,62.88 C89.43,63.2000016 89.5433322,63.526665 89.77,63.86 L89.77,64 L86.71,64 L86.71,63.86 C86.9500012,63.4333312 87.07,63.0733348 87.07,62.78 L87.07,57.5 L84.61,57.5 L84.61,62.78 C84.61,62.9533342 84.6399997,63.1166659 84.7,63.27 C84.7600003,63.4233341 84.8499994,63.6199988 84.97,63.86 L84.97,64 L81.79,64 L81.79,63.86 C82.0300012,63.4333312 82.15,63.0733348 82.15,62.78 L82.15,51.22 C82.15,50.9266652 82.0300012,50.5666688 81.79,50.14 L81.79,50 L84.97,50 L84.97,50.14 C84.7299988,50.5666688 84.61,50.9266652 84.61,51.22 L84.61,55.36 L87.07,55.36 L87.07,51.22 C87.07,50.9266652 86.9500012,50.5666688 86.71,50.14 L86.71,50 L89.77,50 Z M97.61,52.48 C96.9699968,52.1599984 96.4966682,52 96.19,52 L94.27,52 L94.27,55.44 L95.19,55.44 C95.4966682,55.44 95.8899976,55.3266678 96.37,55.1 L96.53,55.1 L96.53,57.66 L96.37,57.66 C95.8899976,57.4333322 95.4966682,57.32 95.19,57.32 L94.27,57.32 L94.27,62 L96.53,62 C96.7166676,62 96.9066657,61.9600004 97.1,61.88 C97.2933343,61.7999996 97.5699982,61.660001 97.93,61.46 L98.01,61.46 L98.01,64 L91.57,64 L91.57,63.86 C91.7966678,63.4466646 91.91,63.0866682 91.91,62.78 L91.91,51.22 C91.91,50.9133318 91.7966678,50.5533354 91.57,50.14 L91.57,50 L97.69,50 L97.69,52.48 L97.61,52.48 Z M105.21,56.92 C105.21,55.519993 105.406665,54.286672 105.8,53.22 C106.193335,52.153328 106.74333,51.3266696 107.45,50.74 C108.15667,50.1533304 108.969995,49.86 109.89,49.86 C110.810005,49.86 111.62333,50.1566637 112.33,50.75 C113.03667,51.3433363 113.583331,52.1833279 113.97,53.27 C114.356669,54.3566721 114.55,55.6066596 114.55,57.02 C114.55,58.420007 114.356669,59.6599946 113.97,60.74 C113.583331,61.8200054 113.03667,62.6566637 112.33,63.25 C111.62333,63.8433363 110.810005,64.14 109.89,64.14 C108.969995,64.14 108.15667,63.840003 107.45,63.24 C106.74333,62.639997 106.193335,61.7933388 105.8,60.7 C105.406665,59.6066612 105.21,58.3466738 105.21,56.92 Z M109.89,61.98 C110.490003,61.98 110.969998,61.5300045 111.33,60.63 C111.690002,59.7299955 111.87,58.546674 111.87,57.08 C111.87,55.5333256 111.690002,54.2866714 111.33,53.34 C110.969998,52.3933286 110.490003,51.92 109.89,51.92 C109.503331,51.92 109.156668,52.1266646 108.85,52.54 C108.543332,52.9533354 108.306668,53.5366629 108.14,54.29 C107.973332,55.0433371 107.89,55.9066618 107.89,56.88 C107.89,57.880005 107.973332,58.7666628 108.14,59.54 C108.306668,60.3133372 108.543332,60.9133312 108.85,61.34 C109.156668,61.7666688 109.503331,61.98 109.89,61.98 Z M119.11,50 L119.11,50.14 C118.869999,50.5533354 118.75,50.9133318 118.75,51.22 L118.75,61.84 L120.87,61.84 C121.056668,61.84 121.233333,61.7966671 121.4,61.71 C121.566668,61.6233329 121.856665,61.4266682 122.27,61.12 L122.35,61.12 L122.35,64 L116.05,64 L116.05,63.86 C116.276668,63.4466646 116.39,63.0866682 116.39,62.78 L116.39,51.22 C116.39,50.9133318 116.276668,50.5533354 116.05,50.14 L116.05,50 L119.11,50 Z M127.77,50 C129.090007,50 130.136663,50.5966607 130.91,51.79 C131.683337,52.9833393 132.07,54.6933222 132.07,56.92 C132.07,59.1466778 131.626671,60.8699939 130.74,62.09 C129.853329,63.3100061 128.650008,63.9466664 127.13,64 L123.85,64 L123.85,63.84 C124.090001,63.4666648 124.21,63.113335 124.21,62.78 L124.21,51.22 C124.21,50.9266652 124.090001,50.5666688 123.85,50.14 L123.85,50 L127.77,50 Z M127.07,62.14 C127.803337,62.1133332 128.383331,61.6500045 128.81,60.75 C129.236669,59.8499955 129.45,58.5733416 129.45,56.92 C129.45,55.3466588 129.293335,54.1400042 128.98,53.3 C128.666665,52.4599958 128.243336,52.04 127.71,52.04 L126.55,52.04 L126.55,62.14 L127.07,62.14 Z M142.47,50.14 C142.349999,50.3666678 142.26,50.5633325 142.2,50.73 C142.14,50.8966675 142.11,51.0666658 142.11,51.24 L142.11,63.6 C142.11,66.133346 140.956678,67.4 138.65,67.4 C138.276665,67.4 137.930002,67.3233341 137.61,67.17 C137.289998,67.0166659 137.076667,66.8666674 136.97,66.72 L137.23,64.84 L137.33,64.84 C137.503334,65.040001 137.689999,65.1766663 137.89,65.25 C138.090001,65.3233337 138.323332,65.36 138.59,65.36 C139.33667,65.36 139.71,64.8666716 139.71,63.88 L139.71,51.24 C139.71,50.9333318 139.596668,50.5666688 139.37,50.14 L139.37,50 L142.47,50 L142.47,50.14 Z M143.97,56.92 C143.97,55.519993 144.166665,54.286672 144.56,53.22 C144.953335,52.153328 145.50333,51.3266696 146.21,50.74 C146.91667,50.1533304 147.729995,49.86 148.65,49.86 C149.570005,49.86 150.38333,50.1566637 151.09,50.75 C151.79667,51.3433363 152.343331,52.1833279 152.73,53.27 C153.116669,54.3566721 153.31,55.6066596 153.31,57.02 C153.31,58.420007 153.116669,59.6599946 152.73,60.74 C152.343331,61.8200054 151.79667,62.6566637 151.09,63.25 C150.38333,63.8433363 149.570005,64.14 148.65,64.14 C147.729995,64.14 146.91667,63.840003 146.21,63.24 C145.50333,62.639997 144.953335,61.7933388 144.56,60.7 C144.166665,59.6066612 143.97,58.3466738 143.97,56.92 Z M148.65,61.98 C149.250003,61.98 149.729998,61.5300045 150.09,60.63 C150.450002,59.7299955 150.63,58.546674 150.63,57.08 C150.63,55.5333256 150.450002,54.2866714 150.09,53.34 C149.729998,52.3933286 149.250003,51.92 148.65,51.92 C148.263331,51.92 147.916668,52.1266646 147.61,52.54 C147.303332,52.9533354 147.066667,53.5366629 146.9,54.29 C146.733332,55.0433371 146.65,55.9066618 146.65,56.88 C146.65,57.880005 146.733332,58.7666628 146.9,59.54 C147.066667,60.3133372 147.303332,60.9133312 147.61,61.34 C147.916668,61.7666688 148.263331,61.98 148.65,61.98 Z M160.59,64 L158.43,57.04 L157.51,58.56 L157.51,62.78 C157.51,63.0733348 157.623332,63.4333312 157.85,63.86 L157.85,64 L154.81,64 L154.81,63.86 C155.036668,63.4466646 155.15,63.0866682 155.15,62.78 L155.15,51.22 C155.15,50.9266652 155.036668,50.5666688 154.81,50.14 L154.81,50 L157.85,50 L157.85,50.14 C157.623332,50.5533354 157.51,50.9133318 157.51,51.22 L157.51,54.68 L159.65,51.02 C159.770001,50.8066656 159.83,50.6200008 159.83,50.46 C159.83,50.3533328 159.796667,50.2466672 159.73,50.14 L159.73,50 L162.87,50 L162.87,50.1 C162.563332,50.4200016 162.323334,50.7266652 162.15,51.02 L159.99,54.5 L162.79,63.12 C162.856667,63.3333344 163.029999,63.5933318 163.31,63.9 L163.31,64 L160.59,64 Z M170.85,52.48 C170.209997,52.1599984 169.736668,52 169.43,52 L167.51,52 L167.51,55.44 L168.43,55.44 C168.736668,55.44 169.129998,55.3266678 169.61,55.1 L169.77,55.1 L169.77,57.66 L169.61,57.66 C169.129998,57.4333322 168.736668,57.32 168.43,57.32 L167.51,57.32 L167.51,62 L169.77,62 C169.956668,62 170.146666,61.9600004 170.34,61.88 C170.533334,61.7999996 170.809998,61.660001 171.17,61.46 L171.25,61.46 L171.25,64 L164.81,64 L164.81,63.86 C165.036668,63.4466646 165.15,63.0866682 165.15,62.78 L165.15,51.22 C165.15,50.9133318 165.036668,50.5533354 164.81,50.14 L164.81,50 L170.93,50 L170.93,52.48 L170.85,52.48 Z M183.49,49.86 L186.45,62.9 C186.543334,63.300002 186.696666,63.6266654 186.91,63.88 L186.91,64 L183.79,64 L183.79,63.86 C183.950001,63.6066654 184.03,63.3666678 184.03,63.14 C184.03,63.0866664 184.016667,62.993334 183.99,62.86 L183.49,60.88 L181.53,60.88 L180.97,62.96 C180.943333,63.093334 180.93,63.1866664 180.93,63.24 C180.93,63.4133342 180.996666,63.6199988 181.13,63.86 L181.13,64 L178.21,64 L178.21,63.9 C178.410001,63.633332 178.536666,63.3933344 178.59,63.18 L181.67,50.9 C181.683333,50.8599998 181.69,50.8000004 181.69,50.72 C181.69,50.5733326 181.656667,50.433334 181.59,50.3 C181.523333,50.166666 181.45,50.066667 181.37,50 L181.37,49.86 L183.49,49.86 Z M181.91,58.98 L183.15,58.98 L182.55,55.98 L181.91,58.98 Z M193.33,64 L191.55,58.16 L190.87,58.16 L190.87,62.78 C190.87,63.0866682 190.976666,63.4466646 191.19,63.86 L191.19,64 L188.17,64 L188.17,63.86 C188.396668,63.4466646 188.51,63.0866682 188.51,62.78 L188.51,51.22 C188.51,50.9133318 188.396668,50.5533354 188.17,50.14 L188.17,50 L192.05,50 C193.130005,50 193.999997,50.3599964 194.66,51.08 C195.320003,51.8000036 195.65,52.7466608 195.65,53.92 C195.65,54.853338 195.440002,55.6799964 195.02,56.4 C194.599998,57.1200036 194.103336,57.6266652 193.53,57.92 L195.37,62.84 C195.516667,63.2000018 195.716665,63.5399984 195.97,63.86 L195.97,64 L193.33,64 Z M191.55,56.14 C191.976669,56.14 192.353332,55.9600018 192.68,55.6 C193.006668,55.2399982 193.17,54.760003 193.17,54.16 C193.17,52.8533268 192.536673,52.2 191.27,52.2 L190.87,52.2 L190.87,56.14 L191.55,56.14 Z M204.61,63.62 C204.383332,63.7666674 204.050002,63.8899995 203.61,63.99 C203.169998,64.0900005 202.710002,64.14 202.23,64.14 C201.229995,64.14 200.346671,63.8566695 199.58,63.29 C198.81333,62.7233305 198.220002,61.9233385 197.8,60.89 C197.379998,59.8566615 197.17,58.6666734 197.17,57.32 C197.17,55.8399926 197.379998,54.5366723 197.8,53.41 C198.220002,52.2833277 198.816663,51.4100031 199.59,50.79 C200.363337,50.1699969 201.256662,49.86 202.27,49.86 C202.790003,49.86 203.266665,49.9099995 203.7,50.01 C204.133336,50.1100005 204.396666,50.2066662 204.49,50.3 L204.61,53.34 L204.53,53.36 C204.289999,53.0799986 203.963335,52.7800016 203.55,52.46 C203.136665,52.1399984 202.710002,51.98 202.27,51.98 C201.763331,51.98 201.320002,52.1966645 200.94,52.63 C200.559998,53.0633355 200.263334,53.6833293 200.05,54.49 C199.836666,55.2966707 199.73,56.2399946 199.73,57.32 C199.73,58.2133378 199.836666,58.9999966 200.05,59.68 C200.263334,60.3600034 200.556665,60.8866648 200.93,61.26 C201.303335,61.6333352 201.736664,61.82 202.23,61.82 C202.736669,61.82 203.206664,61.7133344 203.64,61.5 C204.073336,61.2866656 204.423332,61.080001 204.69,60.88 L204.77,60.88 L204.61,63.62 Z M214.45,50 L214.45,50.14 C214.329999,50.3666678 214.243334,50.5499993 214.19,50.69 C214.136666,50.8300007 214.11,50.9733326 214.11,51.12 L214.11,62.88 C214.11,63.2000016 214.223332,63.526665 214.45,63.86 L214.45,64 L211.39,64 L211.39,63.86 C211.630001,63.4333312 211.75,63.0733348 211.75,62.78 L211.75,57.5 L209.29,57.5 L209.29,62.78 C209.29,62.9533342 209.32,63.1166659 209.38,63.27 C209.44,63.4233341 209.529999,63.6199988 209.65,63.86 L209.65,64 L206.47,64 L206.47,63.86 C206.710001,63.4333312 206.83,63.0733348 206.83,62.78 L206.83,51.22 C206.83,50.9266652 206.710001,50.5666688 206.47,50.14 L206.47,50 L209.65,50 L209.65,50.14 C209.409999,50.5666688 209.29,50.9266652 209.29,51.22 L209.29,55.36 L211.75,55.36 L211.75,51.22 C211.75,50.9266652 211.630001,50.5666688 211.39,50.14 L211.39,50 L214.45,50 Z M219.31,50 L219.31,50.14 C219.069999,50.5666688 218.95,50.9266652 218.95,51.22 L218.95,62.78 C218.95,62.9533342 218.98,63.1166659 219.04,63.27 C219.1,63.4233341 219.189999,63.6199988 219.31,63.86 L219.31,64 L216.25,64 L216.25,63.86 C216.490001,63.4333312 216.61,63.0733348 216.61,62.78 L216.61,51.22 C216.61,51.0466658 216.58,50.8833341 216.52,50.73 C216.46,50.5766659 216.370001,50.3800012 216.25,50.14 L216.25,50 L219.31,50 Z M226.83,50 L229.57,50 L229.57,50.1 C229.49,50.2200006 229.416667,50.3399994 229.35,50.46 C229.283333,50.5800006 229.236667,50.6999994 229.21,50.82 L226.03,64 L224.33,64 L221.49,51.18 C221.369999,50.7533312 221.210001,50.406668 221.01,50.14 L221.01,50 L223.95,50 L223.95,50.14 C223.856666,50.3133342 223.81,50.499999 223.81,50.7 C223.81,50.7800004 223.823333,50.9133324 223.85,51.1 L225.31,58.18 L226.85,51.24 C226.903334,50.973332 226.93,50.7800006 226.93,50.66 C226.93,50.4866658 226.896667,50.3133342 226.83,50.14 L226.83,50 Z M237.31,52.48 C236.669997,52.1599984 236.196668,52 235.89,52 L233.97,52 L233.97,55.44 L234.89,55.44 C235.196668,55.44 235.589998,55.3266678 236.07,55.1 L236.23,55.1 L236.23,57.66 L236.07,57.66 C235.589998,57.4333322 235.196668,57.32 234.89,57.32 L233.97,57.32 L233.97,62 L236.23,62 C236.416668,62 236.606666,61.9600004 236.8,61.88 C236.993334,61.7999996 237.269998,61.660001 237.63,61.46 L237.71,61.46 L237.71,64 L231.27,64 L231.27,63.86 C231.496668,63.4466646 231.61,63.0866682 231.61,62.78 L231.61,51.22 C231.61,50.9133318 231.496668,50.5533354 231.27,50.14 L231.27,50 L237.39,50 L237.39,52.48 L237.31,52.48 Z" transform="translate(-.071)"/><path fill="#C07191" d="M324.99975,36.2895 C324.99975,42.8943095 317.84975,48.9085476 309.99975,48.9085476 C302.14975,48.9085476 294.99975,42.8943095 294.99975,36.2895 L294.99975,33.7656905 L324.99975,33.7656905 L324.99975,36.2895 Z M299.99975,16.0990238 L304.99975,16.0990238 L304.99975,26.1942619 L299.99975,26.1942619 L299.99975,16.0990238 Z M314.99975,16.0990238 L319.99975,16.0990238 L319.99975,26.1942619 L314.99975,26.1942619 L314.99975,16.0990238 Z M309.99975,6.00378571 C296.19225,6.00378571 284.99975,17.3054048 284.99975,31.241881 C284.99975,45.1783571 296.19225,56.4799762 309.99975,56.4799762 C323.80475,56.4799762 334.99975,45.1783571 334.99975,31.241881 C334.99975,17.3054048 323.80475,6.00378571 309.99975,6.00378571 L309.99975,6.00378571 Z" transform="translate(-.071)"/></g></svg>